# xmcd
#
# Track frame offsets: 
#        150
#        20071
#        38613
#        57008
#        75886
#        94412
#        116506
#        139971
#        158550
#        179294
#        203682
#
# Disc length: 3022 seconds
#
# Revision: 0
# Processed by: cddbd v1.5.2PL0 Copyright (c) Steve Scherf et al.
# Submitted via: ExactAudioCopy v1.0b4
#
DISCID=830bcc0b
DTITLE=Rory Block - I Belong To The Band
DYEAR=2012
DGENRE=Blues, Country Blues
TTITLE0=Samson and Delilah
TTITLE1=Goin' to Sit Down On the Banks of the River
TTITLE2=Let Us Get Together Right Down Here
TTITLE3=I Belong to the Band
TTITLE4=Lord, I Feel Just Like Goin' on
TTITLE5=Lo, I Be With You Always
TTITLE6=Pure Religion
TTITLE7=Twelve Gates to the City
TTITLE8=Great Change Since I've Been Born
TTITLE9=I Am the Light of This World
TTITLE10=Death Don't Have No Mercy
EXTD=
EXTT0=
EXTT1=
EXTT2=
EXTT3=
EXTT4=
EXTT5=
EXTT6=
EXTT7=
EXTT8=
EXTT9=
EXTT10=
PLAYORDER=
